<?xml version="1.0" encoding="utf-8"?>
<!-- Generator: Adobe Illustrator 23.0.1, SVG Export Plug-In . SVG Version: 6.00 Build 0)  -->
<svg version="1.1" id="Logo_Horizontal_Dark_Blue_Flash_Green"
	 xmlns="http://www.w3.org/2000/svg" xmlns:xlink="http://www.w3.org/1999/xlink" x="0px" y="0px" viewBox="0 0 198 24"
	 style="enable-background:new 0 0 198 24;" xml:space="preserve">
<style type="text/css">
	.st0{fill:#0A1623;}
	.st1{fill:#00D665;}
</style>
<g id="Name">
	<g id="Crypto_15_">
		<g>
			<path id="XMLID_325_" class="st0" d="M45.34,17.38c-2.31,0-4.12-0.68-5.45-2.03s-1.98-3.16-1.98-5.4c0-2.39,0.74-4.34,2.22-5.81
				S43.53,1.9,45.9,1.9c1.48,0,2.7,0.18,3.7,0.56V5.7c-1.01-0.59-2.16-0.88-3.44-0.88c-1.42,0-2.55,0.44-3.41,1.33
				s-1.3,2.09-1.3,3.6c0,1.45,0.41,2.6,1.21,3.45c0.83,0.86,1.93,1.3,3.29,1.3c1.33,0,2.52-0.32,3.61-0.97v3.07
				C49.57,16.59,47.12,17.38,45.34,17.38z"/>
			<path class="st0" d="M45.34,17.53c-2.33,0-4.2-0.7-5.56-2.08c-1.34-1.37-2.03-3.22-2.03-5.5c0-2.43,0.76-4.42,2.27-5.91
				c1.52-1.52,3.5-2.28,5.88-2.28c1.52,0,2.75,0.19,3.76,0.57l0.1,0.04v3.6l-0.22-0.13c-0.98-0.57-2.11-0.86-3.36-0.86
				c-1.38,0-2.46,0.42-3.3,1.28c-0.84,0.86-1.26,2.04-1.26,3.5c0,1.39,0.4,2.52,1.17,3.35c0.8,0.83,1.87,1.25,3.18,1.25
				c1.3,0,2.46-0.31,3.54-0.95l0.22-0.13v3.43l-0.1,0.03C49.52,16.76,47.12,17.53,45.34,17.53z M45.9,2.05
				c-2.3,0-4.21,0.74-5.67,2.2c-1.45,1.44-2.18,3.36-2.18,5.71c0,2.2,0.65,3.98,1.94,5.29c1.32,1.34,3.06,1.99,5.34,1.99
				c1.53,0,3.61-0.61,4.09-0.76v-2.7c-1.06,0.58-2.2,0.87-3.47,0.87c-1.39,0-2.53-0.45-3.39-1.34c-0.83-0.89-1.26-2.09-1.26-3.55
				c0-1.54,0.45-2.78,1.34-3.7c0.88-0.91,2.07-1.37,3.51-1.37c1.21,0,2.32,0.26,3.29,0.78V2.56C48.5,2.22,47.34,2.05,45.9,2.05z"/>
		</g>
		<g>
			<path id="XMLID_324_" class="st0" d="M58.93,9.39c-0.39-0.21-0.86-0.32-1.39-0.32c-0.71,0-1.27,0.27-1.69,0.8
				c-0.41,0.53-0.62,1.24-0.62,2.15v5.1h-3.32V6.41h3.32v1.98h0.03c0.53-1.45,1.48-2.18,2.84-2.18c0.36,0,0.62,0.03,0.83,0.12
				L58.93,9.39L58.93,9.39z"/>
			<path class="st0" d="M55.38,17.26h-3.61v-11h3.61v1.49c0.59-1.12,1.5-1.69,2.73-1.69c0.41,0,0.67,0.04,0.89,0.13l0.09,0.04v3.41
				l-0.22-0.12c-0.37-0.2-0.83-0.31-1.32-0.31c-0.67,0-1.18,0.24-1.57,0.74c-0.4,0.51-0.59,1.18-0.59,2.06V17.26z M52.06,16.97h3.02
				v-4.95c0-0.95,0.21-1.68,0.65-2.24c0.44-0.57,1.05-0.85,1.81-0.85c0.45,0,0.87,0.08,1.24,0.24V6.43
				c-0.16-0.05-0.38-0.07-0.68-0.07c-1.3,0-2.19,0.68-2.7,2.09l-0.04,0.1h-0.28V6.56h-3.02V16.97z"/>
		</g>
		<g>
			<path id="XMLID_323_" class="st0" d="M71.55,6.41L67.2,17.94c-1.04,2.77-2.64,4.16-4.74,4.16c-0.8,0-1.45-0.09-1.98-0.27v-2.62
				c0.44,0.27,0.92,0.38,1.42,0.38c0.86,0,1.45-0.41,1.78-1.21l0.56-1.33L59.88,6.38h3.7l2.01,6.49c0.12,0.41,0.24,0.88,0.3,1.42
				h0.03c0.06-0.41,0.18-0.88,0.36-1.42l2.01-6.52h3.26V6.41z"/>
			<path class="st0" d="M62.46,22.25c-0.81,0-1.48-0.09-2.03-0.27l-0.1-0.03v-2.99l0.22,0.13c0.41,0.24,0.85,0.36,1.35,0.36
				c0.8,0,1.33-0.37,1.64-1.12l0.54-1.27L59.66,6.23h4.03l2.05,6.59c0.06,0.21,0.13,0.45,0.18,0.72c0.06-0.23,0.13-0.47,0.22-0.73
				l2.05-6.62h3.52l-0.01,0.26l-4.35,11.53C66.28,20.82,64.64,22.25,62.46,22.25z M60.62,21.73c0.5,0.15,1.11,0.23,1.84,0.23
				c2.04,0,3.59-1.37,4.6-4.06l4.3-11.39H68.4l-1.98,6.41c-0.18,0.52-0.29,0.99-0.35,1.39l-0.02,0.13h-0.29l-0.01-0.13
				c-0.06-0.55-0.19-1.03-0.29-1.39l-1.98-6.38H60.1l4.29,10.53l-0.59,1.38c-0.35,0.86-1,1.3-1.91,1.3c-0.46,0-0.88-0.09-1.27-0.28
				V21.73z"/>
		</g>
		<g>
			<path id="XMLID_322_" class="st0" d="M76.23,15.88H76.2v6.16h-3.32V6.41h3.32V8h0.03c0.83-1.24,1.95-1.86,3.44-1.86
				c1.39,0,2.46,0.47,3.23,1.42s1.13,2.24,1.13,3.86c0,1.77-0.44,3.21-1.33,4.28c-0.89,1.09-2.07,1.62-3.52,1.62
				C77.92,17.35,76.91,16.85,76.23,15.88z M76.14,11.48v0.86c0,0.74,0.21,1.33,0.59,1.8c0.39,0.47,0.92,0.71,1.54,0.71
				c0.74,0,1.33-0.29,1.75-0.88c0.41-0.59,0.62-1.42,0.62-2.48c0-1.89-0.74-2.83-2.19-2.83c-0.68,0-1.24,0.27-1.66,0.77
				C76.38,9.95,76.14,10.63,76.14,11.48z"/>
			<path class="st0" d="M76.35,22.19h-3.61V6.26h3.61v1.32C77.19,6.52,78.28,6,79.67,6c1.42,0,2.55,0.49,3.34,1.47
				c0.78,0.96,1.16,2.25,1.16,3.96c0,1.82-0.46,3.29-1.37,4.37c-0.9,1.11-2.13,1.68-3.64,1.68c-1.15,0.03-2.11-0.39-2.81-1.2V22.19z
				 M73.03,21.89h3.02v-6.16h0.26l0.04,0.06c0.65,0.93,1.63,1.4,2.81,1.38c1.42,0,2.57-0.53,3.41-1.57c0.86-1.03,1.3-2.44,1.3-4.18
				c0-1.64-0.36-2.87-1.09-3.77c-0.75-0.92-1.77-1.36-3.11-1.36c-1.42,0-2.5,0.59-3.31,1.79l-0.04,0.07h-0.26V6.56h-3.02V21.89z
				 M78.28,14.99c-0.68,0-1.25-0.26-1.66-0.76c-0.42-0.51-0.63-1.15-0.63-1.89v-0.86c0-0.85,0.23-1.57,0.68-2.15
				c0.45-0.54,1.06-0.82,1.78-0.82c1.55,0,2.34,1,2.34,2.98c0,1.09-0.22,1.95-0.65,2.56C79.7,14.67,79.07,14.99,78.28,14.99z
				 M78.45,8.8c-0.63,0-1.15,0.24-1.54,0.71c-0.41,0.52-0.62,1.19-0.62,1.97v0.86c0,0.69,0.18,1.24,0.56,1.71
				c0.35,0.43,0.84,0.65,1.43,0.65c0.7,0,1.24-0.28,1.63-0.82c0.39-0.56,0.6-1.37,0.6-2.39C80.5,9.68,79.83,8.8,78.45,8.8z"/>
		</g>
		<g>
			<path id="XMLID_321_" class="st0" d="M90.48,17.35c-2.34,0-3.5-1.21-3.5-3.63V8.86h-1.75V6.44h1.75v-2.3l3.29-0.94v3.24h2.4v2.42
				h-2.4v4.34c0,1.12,0.44,1.68,1.33,1.68c0.36,0,0.71-0.09,1.07-0.29v2.39C92.67,16.97,91.49,17.35,90.48,17.35z"/>
			<path class="st0" d="M90.48,17.5c-2.42,0-3.64-1.27-3.64-3.77V9.01h-1.75V6.29h1.75V4.03L90.42,3v3.29h2.4v2.71h-2.4v4.19
				c0,1.05,0.38,1.53,1.18,1.53c0.35,0,0.67-0.09,0.99-0.27l0.22-0.13v2.75l-0.1,0.03C92.67,17.13,91.5,17.5,90.48,17.5z
				 M85.38,8.71h1.75v5.01c0,2.34,1.09,3.48,3.35,3.48c0.8,0,1.74-0.25,2.04-0.34v-2.04c-0.29,0.13-0.6,0.2-0.92,0.2
				c-0.68,0-1.48-0.32-1.48-1.83V8.71h2.4V6.59h-2.4v-3.2l-2.99,0.86v2.34h-1.75V8.71z"/>
		</g>
		<g>
			<path id="XMLID_320_" class="st0" d="M99.6,17.35c-1.78,0-3.2-0.5-4.21-1.5c-1.04-1-1.54-2.36-1.54-4.07
				c0-1.77,0.53-3.16,1.6-4.16c1.07-1,2.49-1.5,4.29-1.5c1.78,0,3.17,0.5,4.21,1.5c1.01,1,1.51,2.33,1.51,3.95
				c0,1.77-0.53,3.18-1.57,4.22S101.41,17.35,99.6,17.35z M99.66,8.68c-0.77,0-1.39,0.27-1.84,0.8c-0.44,0.53-0.65,1.3-0.65,2.27
				c0,2.06,0.83,3.07,2.49,3.07c1.6,0,2.37-1.06,2.37-3.16C102.06,9.68,101.26,8.68,99.66,8.68z"/>
			<path class="st0" d="M99.6,17.5c-1.83,0-3.28-0.52-4.31-1.55c-1.05-1.02-1.58-2.42-1.58-4.17c0-1.8,0.55-3.24,1.65-4.27
				c1.09-1.02,2.57-1.54,4.4-1.54c1.8,0,3.25,0.52,4.31,1.55c1.03,1.03,1.56,2.39,1.56,4.06c0,1.8-0.54,3.26-1.61,4.32
				C102.93,16.96,101.45,17.5,99.6,17.5z M99.75,6.26c-1.77,0-3.15,0.48-4.19,1.46C94.53,8.7,94,10.06,94,11.78
				c0,1.69,0.49,2.99,1.5,3.96c0.97,0.97,2.35,1.46,4.1,1.46c1.77,0,3.18-0.51,4.19-1.52s1.53-2.39,1.53-4.11
				c0-1.58-0.49-2.88-1.47-3.85C102.84,6.74,101.49,6.26,99.75,6.26z M99.66,14.96c-1.75,0-2.64-1.08-2.64-3.21
				c0-1.03,0.23-1.82,0.69-2.37c0.47-0.56,1.13-0.85,1.95-0.85c0.75,0,1.35,0.22,1.77,0.64c0.52,0.52,0.77,1.36,0.75,2.49
				C102.18,13.85,101.33,14.96,99.66,14.96z M99.66,8.83c-0.73,0-1.31,0.25-1.72,0.74c-0.41,0.49-0.62,1.22-0.62,2.18
				c0,1.96,0.77,2.92,2.34,2.92c1.49,0,2.22-0.98,2.22-3.01c0.02-1.05-0.21-1.82-0.67-2.28C100.85,9.02,100.33,8.83,99.66,8.83z"/>
		</g>
	</g>
	<g id="Compare_15_">
		<path id="XMLID_319_" class="st1" d="M120.1,16.63c-1.1,0.53-2.52,0.8-4.29,0.8c-2.31,0-4.12-0.68-5.45-2.03
			c-1.33-1.36-1.98-3.16-1.98-5.4c0-2.39,0.74-4.34,2.22-5.84c1.48-1.5,3.41-2.24,5.78-2.24c1.48,0,2.7,0.18,3.7,0.56v3.24
			c-1.01-0.59-2.16-0.88-3.44-0.88c-1.42,0-2.55,0.44-3.41,1.33c-0.86,0.88-1.3,2.09-1.3,3.6c0,1.45,0.41,2.6,1.21,3.45
			c0.83,0.86,1.93,1.3,3.32,1.3c1.33,0,2.52-0.32,3.64-0.97V16.63z"/>
		<path id="XMLID_318_" class="st1" d="M127.53,17.43c-1.78,0-3.2-0.5-4.24-1.5s-1.54-2.36-1.54-4.07c0-1.77,0.53-3.16,1.6-4.16
			c1.07-1,2.49-1.5,4.32-1.5c1.78,0,3.17,0.5,4.21,1.5c1.01,1,1.51,2.33,1.51,3.95c0,1.77-0.53,3.18-1.57,4.22
			C130.76,16.92,129.34,17.43,127.53,17.43z M127.62,8.76c-0.77,0-1.39,0.27-1.84,0.8c-0.44,0.53-0.65,1.3-0.65,2.27
			c0,2.06,0.83,3.07,2.49,3.07c1.6,0,2.37-1.06,2.37-3.16C130.02,9.76,129.22,8.76,127.62,8.76z"/>
		<path id="XMLID_317_" class="st1" d="M152.59,17.16h-3.32v-6.08c0-1.56-0.56-2.33-1.72-2.33c-0.53,0-0.98,0.24-1.33,0.71
			c-0.36,0.47-0.5,1.06-0.5,1.74v5.99h-3.32v-6.16c0-1.5-0.56-2.27-1.69-2.27c-0.56,0-1.01,0.24-1.36,0.68
			c-0.33,0.44-0.5,1.06-0.5,1.83v5.93h-3.32V6.49h3.32v1.68h0.03c0.36-0.56,0.83-1.03,1.45-1.39c0.62-0.35,1.3-0.53,2.04-0.53
			c1.51,0,2.55,0.68,3.11,2.01c0.83-1.33,2.01-2.01,3.61-2.01c2.34,0,3.5,1.45,3.5,4.31L152.59,17.16L152.59,17.16z"/>
		<path id="XMLID_316_" class="st1" d="M158.58,15.92h-0.03v6.16h-3.32V6.49h3.32v1.62h0.03c0.83-1.24,1.95-1.86,3.44-1.86
			c1.39,0,2.46,0.47,3.23,1.42c0.77,0.94,1.13,2.24,1.13,3.89c0,1.77-0.44,3.21-1.33,4.31c-0.89,1.09-2.07,1.62-3.52,1.62
			C160.23,17.43,159.26,16.92,158.58,15.92z M158.49,11.56v0.86c0,0.74,0.21,1.33,0.59,1.8c0.39,0.47,0.92,0.71,1.54,0.71
			c0.74,0,1.33-0.29,1.75-0.88c0.41-0.59,0.62-1.42,0.62-2.48c0-1.89-0.74-2.83-2.19-2.83c-0.68,0-1.24,0.27-1.66,0.77
			C158.69,10.02,158.49,10.7,158.49,11.56z"/>
		<path id="XMLID_315_" class="st1" d="M177.27,17.16h-3.14v-1.53h-0.06c-0.71,1.21-1.78,1.8-3.2,1.8c-1.04,0-1.87-0.29-2.46-0.88
			c-0.59-0.59-0.89-1.39-0.89-2.36c0-2.06,1.24-3.27,3.7-3.6l2.9-0.38c0-1.18-0.62-1.74-1.9-1.74c-1.27,0-2.49,0.38-3.64,1.15V7.13
			c0.47-0.24,1.1-0.44,1.9-0.62c0.8-0.18,1.54-0.27,2.19-0.27c3.05,0,4.59,1.53,4.59,4.57L177.27,17.16L177.27,17.16z M174.16,12.83
			v-0.71l-1.95,0.24c-1.07,0.15-1.63,0.62-1.63,1.45c0,0.38,0.12,0.68,0.39,0.91c0.27,0.24,0.62,0.35,1.07,0.35
			c0.62,0,1.13-0.21,1.51-0.65C173.95,14.03,174.16,13.47,174.16,12.83z"/>
		<path id="XMLID_314_" class="st1" d="M186.89,9.46c-0.39-0.21-0.86-0.32-1.39-0.32c-0.71,0-1.27,0.27-1.69,0.8
			c-0.41,0.53-0.62,1.24-0.62,2.15v5.1h-3.32V6.49h3.32v1.98h0.03c0.53-1.45,1.48-2.18,2.84-2.18c0.36,0,0.62,0.03,0.83,0.12
			L186.89,9.46L186.89,9.46z"/>
		<path id="XMLID_313_" class="st1" d="M198,12.77h-7.02c0.12,1.56,1.1,2.33,2.93,2.33c1.18,0,2.22-0.27,3.11-0.83v2.39
			c-1.01,0.53-2.28,0.8-3.88,0.8c-1.75,0-3.08-0.47-4.03-1.45c-0.95-0.94-1.45-2.3-1.45-4.01c0-1.77,0.5-3.18,1.54-4.22
			c1.04-1.03,2.31-1.56,3.82-1.56c1.57,0,2.78,0.47,3.64,1.39c0.86,0.91,1.27,2.18,1.27,3.77v1.39H198z M194.92,10.73
			c0-1.53-0.62-2.3-1.87-2.3c-0.53,0-0.98,0.21-1.39,0.65c-0.39,0.44-0.62,0.97-0.71,1.65H194.92z"/>
	</g>
</g>
<g id="Logo_17_">
	<polyline id="Bar_Left_37_" class="st0" points="11.16,17.54 11.16,14.72 14.11,11.78 14.11,17.54 	"/>
	<polyline id="Bar_Middle_37_" class="st0" points="15.45,17.54 15.45,13.64 16.88,14.67 18.65,13.18 18.65,17.54 	"/>
	<polyline id="Bar_Right_37_" class="st0" points="19.82,17.54 23.21,17.54 23.21,9.19 19.82,12.17 	"/>
	<path id="Arrow_37_" class="st1" d="M11,13.18l-0.69-0.8l3.82-3.65l2.74,2.59l4.84-4.38l-0.81-0.96l3.41-0.78l-0.67,3.28
		l-0.97-0.69l-5.8,5.57l-2.74-2.34l-0.28-0.25c0,0-2.53,2.59-2.7,2.5"/>
	<path class="st1" d="M20.95,22.69l-0.63-2.32c4.92-1.33,9.15-4.2,11.04-7.48c0.97-1.7,1.27-3.4,0.85-4.94
		c-0.6-2.19-2.58-3.9-5.59-4.83c-3.2-0.99-7.1-0.95-10.99,0.1L14.99,0.9c4.33-1.17,8.71-1.19,12.34-0.07
		c3.82,1.18,6.38,3.48,7.2,6.49c0.59,2.16,0.22,4.5-1.08,6.77C31.23,17.96,26.55,21.18,20.95,22.69z"/>
	<path class="st0" d="M13.25,24c-2.04,0-4-0.27-5.77-0.82C3.66,22,1.1,19.69,0.28,16.69c-0.59-2.16-0.22-4.5,1.08-6.77
		c2.23-3.88,6.91-7.1,12.51-8.61l0.63,2.32c-4.92,1.33-9.15,4.2-11.04,7.48c-0.97,1.7-1.27,3.4-0.85,4.93
		c0.6,2.19,2.58,3.9,5.59,4.83c3.2,0.99,7.1,0.95,10.99-0.1l0.63,2.32C17.61,23.7,15.38,24,13.25,24z"/>
</g>
</svg>
